<?xml version="1.0" standalone="no"?>
<!DOCTYPE svg PUBLIC "-//W3C//DTD SVG 20010904//EN"
 "http://www.w3.org/TR/2001/REC-SVG-20010904/DTD/svg10.dtd">
<svg version="1.0" xmlns="http://www.w3.org/2000/svg"
 width="427.000000pt" height="427.000000pt" viewBox="0 0 427.000000 427.000000"
 preserveAspectRatio="xMidYMid meet">
<metadata>
Created by potrace 1.14, written by Peter Selinger 2001-2017
</metadata>
<g transform="translate(0.000000,427.000000) scale(0.100000,-0.100000)"
fill="#000000" stroke="none">
<path d="M2028 4176 c-41 -15 -115 -58 -273 -161 -55 -35 -125 -79 -155 -98
-557 -343 -547 -337 -522 -337 7 0 12 5 12 11 0 5 5 7 10 4 6 -3 10 -2 10 3 0
6 6 12 14 15 7 3 13 0 13 -6 -1 -36 5 -47 23 -47 14 0 20 -7 20 -22 0 -13 12
-31 25 -41 14 -10 25 -14 25 -8 0 5 -6 12 -12 15 -10 5 -10 7 0 12 6 3 12 11
12 18 0 7 6 13 14 13 7 0 13 -7 12 -16 -1 -10 6 -15 18 -13 12 2 16 -1 10 -9
-4 -8 -3 -10 4 -5 7 4 12 18 12 32 0 21 4 24 40 24 33 0 40 3 40 20 0 18 7 20
69 20 69 0 94 11 72 33 -18 18 -13 45 11 61 20 14 91 16 573 16 482 0 553 -2
573 -16 27 -19 28 -45 4 -68 -17 -15 -67 -16 -579 -14 -490 3 -560 1 -560 -12
0 -14 20 -40 31 -40 3 0 6 9 6 20 0 18 7 20 60 20 53 0 60 -2 60 -20 0 -19 7
-20 100 -20 93 0 100 -1 100 -20 0 -18 7 -20 80 -20 73 0 80 2 80 20 0 17 7
20 40 20 33 0 40 -3 40 -20 0 -17 7 -20 40 -20 33 0 40 3 40 20 0 19 7 20 159
20 118 0 161 3 165 13 5 10 7 10 12 0 8 -18 24 -16 24 2 0 8 9 15 20 15 11 0
20 -7 20 -15 0 -13 24 -15 160 -15 153 0 160 1 160 20 0 16 7 20 34 20 19 0
38 -4 41 -10 10 -16 62 -12 80 6 12 13 19 14 30 4 8 -7 15 -8 15 -3 0 5 -101
72 -225 149 -124 76 -321 199 -438 273 -116 74 -236 143 -264 153 -61 21 -133
23 -185 4z m203 -306 c32 -17 24 -55 -15 -74 -28 -13 -69 -16 -218 -16 -197 0
-230 7 -236 48 -7 49 4 52 235 52 129 0 222 -4 234 -10z"/>
<path d="M3150 3590 c0 -5 5 -10 11 -10 5 0 7 5 4 10 -3 6 -8 10 -11 10 -2 0
-4 -4 -4 -10z"/>
<path d="M1027 3564 c-16 -9 -27 -17 -25 -20 6 -6 58 20 58 29 0 9 0 9 -33 -9z"/>
<path d="M3080 3570 c0 -5 10 -10 23 -10 18 0 19 2 7 10 -19 13 -30 13 -30 0z"/>
<path d="M3174 3568 c-4 -7 -4 -10 1 -6 4 4 16 3 26 -3 11 -5 19 -7 19 -5 0 3
-9 10 -19 16 -15 7 -22 7 -27 -2z"/>
<path d="M3225 3530 c-3 -5 -2 -10 4 -10 5 0 13 5 16 10 3 6 2 10 -4 10 -5 0
-13 -4 -16 -10z"/>
<path d="M910 3490 c-9 -6 -10 -10 -3 -10 6 0 15 5 18 10 8 12 4 12 -15 0z"/>
<path d="M3330 3486 c0 -3 9 -10 20 -16 11 -6 20 -8 20 -6 0 3 -9 10 -20 16
-11 6 -20 8 -20 6z"/>
<path d="M2074 3438 l-19 -23 23 19 c21 18 27 26 19 26 -2 0 -12 -10 -23 -22z"/>
<path d="M794 3414 c-18 -14 -18 -15 4 -4 12 6 22 13 22 15 0 8 -5 6 -26 -11z"/>
<path d="M1733 3363 c-33 -38 -245 -255 -471 -483 l-411 -415 -1 97 c0 53 -4
99 -8 102 -4 2 -94 -79 -200 -181 l-193 -186 4 -573 4 -574 31 -63 c44 -89 96
-133 332 -281 113 -71 239 -150 280 -176 41 -26 143 -89 225 -140 83 -51 222
-139 310 -195 207 -133 330 -203 380 -217 97 -27 263 -5 337 45 19 13 86 56
149 94 63 39 201 125 308 192 107 67 244 153 305 190 254 156 504 316 552 352
60 46 97 98 127 178 21 54 22 73 25 611 l3 556 -185 182 c-101 100 -189 182
-195 182 -7 0 -11 -33 -11 -96 0 -58 -4 -94 -10 -92 -5 2 -226 219 -490 482
l-480 479 -22 -29 c-13 -16 -59 -70 -103 -121 l-81 -93 79 -80 c47 -48 76 -84
71 -91 -4 -7 -3 -9 3 -6 5 3 27 -12 48 -33 l39 -40 -89 -83 c-49 -45 -93 -81
-97 -80 -4 2 -8 -5 -8 -15 0 -9 -39 -55 -86 -101 l-85 -84 -46 44 c-24 24
-103 105 -174 181 l-130 136 116 121 c63 67 115 123 115 126 0 3 -16 23 -36
45 -20 22 -34 40 -32 40 3 0 -15 21 -39 48 -24 26 -54 62 -66 79 -12 18 -25
33 -28 33 -3 0 -33 -30 -66 -67z m1472 -1149 l28 -47 -6 -654 -6 -654 -23 -29
c-13 -16 -26 -29 -30 -29 -5 -1 -8 282 -8 628 0 378 -4 632 -9 636 -5 3 -12 1
-16 -5 -4 -6 -10 -8 -14 -6 -10 6 -25 -25 -41 -83 -9 -36 -33 -66 -116 -150
l-104 -106 0 36 c0 29 11 48 58 105 85 102 212 272 222 297 4 12 14 41 21 65
7 23 13 42 15 42 1 0 14 -21 29 -46z m-2081 -17 c16 -28 54 -89 83 -135 29
-45 53 -85 53 -87 0 -8 -39 0 -47 10 -5 4 -2 5 6 0 9 -5 12 -4 7 3 -4 7 -14
12 -21 12 -8 0 -30 14 -48 30 -71 62 -67 98 -67 -565 0 -327 -3 -595 -8 -595
-4 0 -49 47 -100 104 l-92 105 0 443 0 443 95 143 c52 78 99 142 103 142 4 0
20 -24 36 -53z m843 -218 l23 -14 -32 -32 c-39 -40 -51 -41 -96 -7 l-34 27 38
33 c34 28 41 31 59 20 11 -7 30 -19 42 -27z m424 -58 c-11 -7 -10 -10 5 -14
10 -3 -9 -5 -43 -4 -34 1 -58 -2 -54 -6 5 -5 73 -12 152 -16 l144 -8 -192 -2
c-105 0 -198 2 -207 5 -19 7 -21 40 -3 47 22 10 213 7 198 -2z m580 -285
l-111 -111 0 47 c0 46 1 47 108 147 l107 100 3 -36 c3 -35 -3 -42 -107 -147z
m-1153 131 c4 -20 -25 -34 -40 -19 -15 15 -1 44 19 40 10 -2 19 -11 21 -21z
m673 -6 c21 -16 22 -22 11 -45 l-12 -26 -214 0 c-225 0 -243 3 -234 47 7 36
45 43 239 43 168 0 189 -2 210 -19z m-1731 -37 c6 -16 9 -158 8 -361 l-3 -335
-27 22 c-26 20 -28 26 -28 101 l0 79 -30 0 c-36 0 -71 43 -51 63 9 9 16 9 32
-1 43 -27 54 21 13 59 -31 28 -54 77 -47 96 4 10 14 7 39 -12 42 -32 44 -31
44 6 0 21 -11 44 -35 72 -35 40 -53 82 -42 94 3 3 19 -4 35 -16 17 -12 33 -21
36 -21 3 0 6 29 6 64 0 101 28 150 50 90z m787 -441 c-3 -252 -6 -510 -8 -573
-4 -110 -5 -115 -26 -118 l-23 -3 0 553 c0 544 0 555 20 576 12 12 25 22 31
22 6 0 8 -159 6 -457z m1191 -66 c2 -379 -1 -433 -23 -397 -4 6 -11 8 -16 5
-5 -4 -9 -2 -9 4 0 5 -24 34 -54 64 -45 45 -53 58 -49 81 l5 26 43 -35 c24
-19 46 -35 49 -35 3 0 6 17 6 38 0 32 -7 45 -50 87 -31 31 -50 58 -50 72 0 13
3 23 6 23 11 0 50 -23 72 -43 l22 -20 0 39 c0 34 -7 46 -50 89 -36 36 -50 57
-50 77 0 26 2 27 28 17 15 -6 37 -20 50 -31 24 -23 25 -21 22 32 -1 24 -14 47
-41 79 -42 47 -58 86 -41 103 6 6 22 -1 46 -22 l36 -32 0 76 c0 74 14 120 35
113 6 -2 11 -148 13 -410z m235 229 l-108 -112 -3 45 -4 46 109 103 108 102 3
-35 c3 -34 -4 -44 -105 -149z m-999 158 c20 -8 21 -38 2 -53 -11 -9 -20 -10
-35 -1 -24 12 -27 30 -9 48 14 14 20 14 42 6z m485 -94 c1 -3 -15 -18 -35 -34
l-36 -28 -29 28 -29 28 32 33 31 32 33 -27 c18 -15 33 -29 33 -32z m597 -173
c-13 -18 -63 -72 -110 -122 l-85 -90 -1 51 0 50 108 105 107 104 3 -33 c2 -24
-4 -43 -22 -65z m-1007 -51 c-18 -22 -58 -69 -88 -104 l-54 -63 -25 25 -25 25
109 117 109 117 3 -38 c3 -30 -3 -46 -29 -79z m315 -93 c18 -24 18 -24 0 -38
-11 -8 -23 -14 -29 -15 -5 0 -45 41 -87 90 -71 82 -78 93 -78 132 l0 43 87
-94 c49 -52 96 -105 107 -118z m689 -61 c-15 -20 -65 -75 -110 -122 l-82 -85
-1 50 0 50 108 108 107 108 3 -36 c3 -28 -4 -46 -25 -73z m-870 -254 l-10
-223 -1 235 c-2 173 1 231 9 223 8 -8 9 -72 2 -235z m-112 79 c-3 -166 -6
-187 -32 -187 -14 0 -19 -7 -19 -28 0 -15 -4 -32 -9 -38 -5 -5 -11 -18 -14
-29 -3 -11 -5 26 -6 83 0 56 -5 102 -10 102 -6 0 -29 -22 -53 -50 -24 -27 -48
-50 -55 -50 -6 0 -13 21 -15 52 l-3 52 104 123 c58 67 107 120 110 118 3 -3 4
-70 2 -148z m1009 37 c0 -28 -8 -44 -34 -70 -19 -19 -33 -34 -31 -34 2 0 -24
-26 -57 -57 -34 -32 -69 -71 -79 -88 l-19 -30 0 50 0 50 107 107 c59 60 109
108 110 108 2 0 3 -16 3 -36z m-1090 -412 c0 -57 -1 -59 -55 -112 -61 -60 -75
-58 -75 9 0 27 11 47 56 97 31 35 60 64 65 64 5 0 9 -26 9 -58z m718 -127 c-3
-3 -9 2 -12 12 -6 14 -5 15 5 6 7 -7 10 -15 7 -18z"/>
<path d="M2204 1909 c-3 -6 -2 -15 3 -20 5 -5 9 -1 9 11 0 23 -2 24 -12 9z"/>
<path d="M2248 1893 c6 -2 18 -2 25 0 6 3 1 5 -13 5 -14 0 -19 -2 -12 -5z"/>
<path d="M2041 804 c0 -11 3 -14 6 -6 3 7 2 16 -1 19 -3 4 -6 -2 -5 -13z"/>
<path d="M2020 3384 c0 -14 3 -14 15 -4 8 7 15 14 15 16 0 2 -7 4 -15 4 -8 0
-15 -7 -15 -16z"/>
<path d="M2205 3040 c-3 -5 -1 -18 4 -27 9 -15 10 -14 9 10 -3 30 -4 32 -13
17z"/>
</g>
</svg>
